<?xml version="1.0" encoding="UTF-8" standalone="no"?>
<!DOCTYPE svg PUBLIC "-//W3C//DTD SVG 1.1//EN" "http://www.w3.org/Graphics/SVG/1.1/DTD/svg11.dtd">
<svg width="100%" height="100%" viewBox="0 0 300 80" version="1.1" xmlns="http://www.w3.org/2000/svg" xmlns:xlink="http://www.w3.org/1999/xlink" xml:space="preserve" xmlns:serif="http://www.serif.com/" style="fill-rule:evenodd;clip-rule:evenodd;stroke-linecap:round;">
    <path d="M70,20L70,60C70,65.519 65.519,70 60,70L20,70C14.481,70 10,65.519 10,60L10,20C10,14.481 14.481,10 20,10L60,10C65.519,10 70,14.481 70,20Z" style="fill:rgb(76,175,80);"/>
    <g transform="matrix(1,0,0,1,40,33)">
        <text x="-17.777px" y="0px" style="font-family:'Arial-BoldMT', 'Arial', sans-serif;font-weight:700;font-size:16px;fill:white;">YUM</text>
    </g>
    <g transform="matrix(1,0,0,1,3,3)">
        <path d="M25,35L25,55M22,35L22,45M28,35L28,45" style="fill-rule:nonzero;stroke:white;stroke-width:2px;"/>
    </g>
    <g transform="matrix(1,0,0,1,-3,4)">
        <rect x="45" y="35" width="15" height="15" style="fill:white;"/>
    </g>
    <g transform="matrix(1,0,0,1,-3,4)">
        <path d="M45,38L60,38M49,35L49,38M56,35L56,38" style="fill-rule:nonzero;stroke:rgb(76,175,80);stroke-width:1px;stroke-linecap:butt;"/>
    </g>
    <g transform="matrix(1,0,0,1,49,51)">
        <text x="-2.225px" y="0px" style="font-family:'ArialMT', 'Arial', sans-serif;font-size:8px;fill:rgb(76,175,80);">7</text>
    </g>
    <g transform="matrix(1,0,0,1,85,45)">
        <text x="0px" y="0px" style="font-family:'Arial-BoldMT', 'Arial', sans-serif;font-weight:700;font-size:24px;fill:rgb(76,175,80);">Y<tspan x="14.684px 29.344px " y="0px 0px ">um</tspan> Scheduler</text>
    </g>
    <g transform="matrix(1,0,0,1,85,65)">
        <text x="0px" y="0px" style="font-family:'ArialMT', 'Arial', sans-serif;font-size:14px;fill:rgb(85,85,85);">Plan your meals with ease</text>
    </g>
</svg>
